<?xml version="1.0" standalone="no"?>
<!DOCTYPE svg PUBLIC "-//W3C//DTD SVG 20010904//EN"
 "http://www.w3.org/TR/2001/REC-SVG-20010904/DTD/svg10.dtd">
<svg version="1.0" xmlns="http://www.w3.org/2000/svg"
 width="500.000000pt" height="500.000000pt" viewBox="0 0 500.000000 500.000000"
 preserveAspectRatio="xMidYMid meet">

<g transform="translate(0.000000,500.000000) scale(0.100000,-0.100000)"
fill="#000000" stroke="none">
<path d="M0 2500 l0 -2500 2500 0 2500 0 0 2500 0 2500 -2500 0 -2500 0 0
-2500z m2226 1037 c71 -20 150 -65 180 -100 14 -17 37 -53 52 -81 23 -45 26
-63 27 -146 0 -81 -3 -102 -24 -140 -54 -101 -127 -164 -227 -193 l-48 -14 62
-12 c211 -41 352 -220 352 -446 0 -224 -142 -399 -358 -444 -34 -7 -204 -11
-467 -11 l-415 0 0 798 c0 439 3 802 8 806 4 4 187 6 407 3 317 -3 411 -8 451
-20z m1208 -4 c13 -26 661 -1477 693 -1550 l13 -33 -73 0 -74 0 -43 98 c-81
184 -106 226 -170 285 -199 185 -526 208 -701 50 -46 -42 -77 -113 -125 -290
l-39 -143 -72 0 c-40 0 -73 2 -73 5 0 3 122 345 271 761 282 790 272 757 244
827 -6 15 0 17 64 17 67 0 71 -1 85 -27z m-1931 -1972 c22 -9 25 -15 23 -58
l-1 -48 -42 -3 -43 -3 0 54 c0 70 9 78 63 58z m251 -6 c22 -22 29 -52 16 -74
-25 -48 -81 -48 -100 -1 -25 59 41 118 84 75z m246 -5 c11 -11 20 -31 20 -45
0 -26 -31 -65 -53 -65 -53 0 -79 84 -35 114 30 21 44 20 68 -4z m178 -30 c3 0
19 12 34 27 15 15 28 22 28 16 0 -6 -7 -16 -15 -23 -20 -16 -19 -26 6 -61 25
-36 5 -39 -23 -4 -21 27 -38 25 -38 -6 0 -10 -4 -19 -10 -19 -5 0 -10 24 -10
53 0 57 13 87 18 43 2 -14 6 -26 10 -26z m222 -10 c0 -33 -4 -60 -10 -60 -11
0 -14 103 -3 113 12 12 13 8 13 -53z m190 13 l30 -47 0 48 c0 29 4 45 10 41 6
-3 10 -31 10 -61 0 -67 -15 -70 -52 -11 l-28 42 0 -42 c0 -24 -4 -43 -10 -43
-11 0 -14 103 -3 113 10 11 12 9 43 -40z m275 31 c20 -21 13 -29 -13 -15 -11
6 -27 8 -35 5 -28 -10 -28 -67 -1 -78 17 -6 44 3 44 15 0 5 -7 9 -15 9 -8 0
-15 5 -15 10 0 6 11 10 25 10 21 0 25 -5 25 -32 0 -17 -3 -28 -6 -25 -4 3 -15
2 -25 -4 -36 -19 -87 30 -74 71 15 47 60 64 90 34z m230 -45 c17 -50 13 -80
-6 -46 -12 21 -49 23 -49 2 0 -8 -7 -15 -15 -15 -12 0 -11 9 6 52 33 85 38 85
64 7z m213 55 c16 -5 22 -14 22 -35 0 -25 -5 -30 -30 -35 -21 -5 -30 -12 -30
-25 0 -11 -4 -19 -10 -19 -6 0 -10 27 -10 60 0 64 4 68 58 54z m227 -4 c38
-14 31 -52 -12 -65 -22 -6 -33 -15 -33 -27 0 -10 -4 -18 -10 -18 -11 0 -14
103 -3 113 9 10 27 9 58 -3z"/>
<path d="M1533 3510 c-13 -6 -26 -23 -32 -47 -14 -50 -14 -500 -1 -540 17 -49
40 -53 284 -53 240 0 301 7 381 44 117 53 176 141 183 274 4 77 2 87 -27 147
-49 98 -130 153 -261 174 -78 13 -496 13 -527 1z"/>
<path d="M1519 2811 l-24 -19 -3 -344 c-3 -361 0 -418 24 -443 22 -22 519 -22
612 0 131 31 230 107 280 213 25 53 27 67 27 187 0 122 -2 134 -29 193 -53
116 -164 195 -310 223 -27 5 -162 9 -301 9 -234 0 -255 -1 -276 -19z"/>
<path d="M3325 3370 c-12 -20 -245 -844 -239 -849 2 -3 19 1 37 8 90 37 118
44 187 48 127 9 278 -44 418 -144 51 -36 64 -42 60 -27 -15 57 -433 974 -444
974 -7 0 -16 -5 -19 -10z"/>
<path d="M1467 1544 c-14 -14 -6 -24 19 -24 16 0 24 5 22 13 -5 14 -31 21 -41
11z"/>
<path d="M1460 1485 c0 -9 9 -15 25 -15 16 0 25 6 25 15 0 9 -9 15 -25 15 -16
0 -25 -6 -25 -15z"/>
<path d="M1696 1534 c-9 -8 -16 -22 -16 -29 0 -15 27 -45 40 -45 13 0 40 30
40 45 0 15 -27 45 -40 45 -5 0 -16 -7 -24 -16z"/>
<path d="M1943 1543 c-7 -2 -13 -20 -13 -38 0 -25 5 -35 20 -40 26 -8 50 11
50 39 0 36 -25 53 -57 39z"/>
<path d="M3056 1515 c-3 -8 -1 -15 4 -15 6 0 10 7 10 15 0 8 -2 15 -4 15 -2 0
-6 -7 -10 -15z"/>
<path d="M3270 1530 c0 -15 5 -20 18 -18 9 2 17 10 17 18 0 8 -8 16 -17 18
-13 2 -18 -3 -18 -18z"/>
<path d="M3490 1530 c0 -16 5 -21 23 -18 12 2 22 10 22 18 0 8 -10 16 -22 18
-18 3 -23 -2 -23 -18z"/>
</g>
</svg>
